<mxfile host="app.diagrams.net" modified="2021-09-23T12:07:30.540Z" agent="5.0 (Windows NT 10.0; Win64; x64) AppleWebKit/537.36 (KHTML, like Gecko) Chrome/93.0.4577.82 Safari/537.36" etag="2O2743f6zvJfF_Vd7Ubi" version="15.2.9" type="github">
  <diagram name="Page-1" id="c4acf3e9-155e-7222-9cf6-157b1a14988f">
    <mxGraphModel dx="1038" dy="539" grid="1" gridSize="10" guides="1" tooltips="1" connect="1" arrows="1" fold="1" page="1" pageScale="1" pageWidth="850" pageHeight="1100" background="none" math="0" shadow="0">
      <root>
        <mxCell id="0" />
        <mxCell id="1" parent="0" />
        <mxCell id="gOFwVCeouQpmuvz-VUP3-1" value="&lt;p style=&quot;margin: 0px ; margin-top: 4px ; text-align: center&quot;&gt;&lt;i&gt;&amp;lt;&amp;lt;Interface&amp;gt;&amp;gt;&lt;/i&gt;&lt;br&gt;&lt;b&gt;IUserDal&lt;/b&gt;&lt;/p&gt;&lt;br&gt;&lt;hr size=&quot;1&quot;&gt;&lt;p style=&quot;margin: 0px ; margin-left: 4px&quot;&gt;~ GetCarDetails:List&amp;lt;CarDetailDto&amp;gt;&lt;br&gt;&lt;/p&gt;" style="verticalAlign=top;align=left;overflow=fill;fontSize=12;fontFamily=Helvetica;html=1;" vertex="1" parent="1">
          <mxGeometry x="40" y="360" width="210" height="80" as="geometry" />
        </mxCell>
        <mxCell id="gOFwVCeouQpmuvz-VUP3-6" value="&lt;p style=&quot;margin: 0px ; margin-top: 4px ; text-align: center&quot;&gt;&lt;i&gt;&amp;lt;&amp;lt;Interface&amp;gt;&amp;gt;&lt;/i&gt;&lt;br&gt;&lt;b&gt;IRentalDal&lt;/b&gt;&lt;/p&gt;&lt;br&gt;&lt;hr size=&quot;1&quot;&gt;&lt;p style=&quot;margin: 0px ; margin-left: 4px&quot;&gt;~ GetRentalDetails:List&amp;lt;RentaDetailDto&amp;gt;&lt;br&gt;&lt;/p&gt;" style="verticalAlign=top;align=left;overflow=fill;fontSize=12;fontFamily=Helvetica;html=1;" vertex="1" parent="1">
          <mxGeometry x="320" y="360" width="230" height="80" as="geometry" />
        </mxCell>
        <mxCell id="gOFwVCeouQpmuvz-VUP3-3" value="" style="edgeStyle=orthogonalEdgeStyle;rounded=0;orthogonalLoop=1;jettySize=auto;html=1;" edge="1" parent="1" source="gOFwVCeouQpmuvz-VUP3-2" target="gOFwVCeouQpmuvz-VUP3-1">
          <mxGeometry relative="1" as="geometry" />
        </mxCell>
        <mxCell id="gOFwVCeouQpmuvz-VUP3-7" value="" style="edgeStyle=orthogonalEdgeStyle;rounded=0;orthogonalLoop=1;jettySize=auto;html=1;" edge="1" source="gOFwVCeouQpmuvz-VUP3-8" target="gOFwVCeouQpmuvz-VUP3-6" parent="1">
          <mxGeometry relative="1" as="geometry" />
        </mxCell>
        <mxCell id="gOFwVCeouQpmuvz-VUP3-2" value="«interface»&lt;br&gt;&lt;b&gt;IEntityRepository&amp;lt;Car&amp;gt;&lt;/b&gt;" style="html=1;" vertex="1" parent="1">
          <mxGeometry x="65" y="250" width="160" height="50" as="geometry" />
        </mxCell>
        <mxCell id="gOFwVCeouQpmuvz-VUP3-8" value="«interface»&lt;br&gt;&lt;b&gt;IEntityRepository&amp;lt;Rental&amp;gt;&lt;/b&gt;" style="html=1;" vertex="1" parent="1">
          <mxGeometry x="355" y="250" width="160" height="50" as="geometry" />
        </mxCell>
        <mxCell id="gOFwVCeouQpmuvz-VUP3-9" value="RecapContext" style="swimlane;fontStyle=0;childLayout=stackLayout;horizontal=1;startSize=26;fillColor=none;horizontalStack=0;resizeParent=1;resizeParentMax=0;resizeLast=0;collapsible=1;marginBottom=0;" vertex="1" parent="1">
          <mxGeometry x="210" y="20" width="180" height="208" as="geometry" />
        </mxCell>
        <mxCell id="gOFwVCeouQpmuvz-VUP3-10" value="# OnConfiguring" style="text;strokeColor=none;fillColor=none;align=left;verticalAlign=top;spacingLeft=4;spacingRight=4;overflow=hidden;rotatable=0;points=[[0,0.5],[1,0.5]];portConstraint=eastwest;" vertex="1" parent="gOFwVCeouQpmuvz-VUP3-9">
          <mxGeometry y="26" width="180" height="26" as="geometry" />
        </mxCell>
        <mxCell id="gOFwVCeouQpmuvz-VUP3-11" value="+ Cars:DbSet&lt;Car&gt;" style="text;strokeColor=none;fillColor=none;align=left;verticalAlign=top;spacingLeft=4;spacingRight=4;overflow=hidden;rotatable=0;points=[[0,0.5],[1,0.5]];portConstraint=eastwest;" vertex="1" parent="gOFwVCeouQpmuvz-VUP3-9">
          <mxGeometry y="52" width="180" height="26" as="geometry" />
        </mxCell>
        <mxCell id="gOFwVCeouQpmuvz-VUP3-13" value="+ Rentals:DbSet&lt;Rental&gt;" style="text;strokeColor=none;fillColor=none;align=left;verticalAlign=top;spacingLeft=4;spacingRight=4;overflow=hidden;rotatable=0;points=[[0,0.5],[1,0.5]];portConstraint=eastwest;" vertex="1" parent="gOFwVCeouQpmuvz-VUP3-9">
          <mxGeometry y="78" width="180" height="26" as="geometry" />
        </mxCell>
        <mxCell id="gOFwVCeouQpmuvz-VUP3-14" value="+ Brands:DbSet&lt;Brand&gt;" style="text;strokeColor=none;fillColor=none;align=left;verticalAlign=top;spacingLeft=4;spacingRight=4;overflow=hidden;rotatable=0;points=[[0,0.5],[1,0.5]];portConstraint=eastwest;" vertex="1" parent="gOFwVCeouQpmuvz-VUP3-9">
          <mxGeometry y="104" width="180" height="26" as="geometry" />
        </mxCell>
        <mxCell id="gOFwVCeouQpmuvz-VUP3-15" value="+ Colors:DbSet&lt;Color&gt;" style="text;strokeColor=none;fillColor=none;align=left;verticalAlign=top;spacingLeft=4;spacingRight=4;overflow=hidden;rotatable=0;points=[[0,0.5],[1,0.5]];portConstraint=eastwest;" vertex="1" parent="gOFwVCeouQpmuvz-VUP3-9">
          <mxGeometry y="130" width="180" height="26" as="geometry" />
        </mxCell>
        <mxCell id="gOFwVCeouQpmuvz-VUP3-16" value="+ Users:DbSet&lt;User&gt;" style="text;strokeColor=none;fillColor=none;align=left;verticalAlign=top;spacingLeft=4;spacingRight=4;overflow=hidden;rotatable=0;points=[[0,0.5],[1,0.5]];portConstraint=eastwest;" vertex="1" parent="gOFwVCeouQpmuvz-VUP3-9">
          <mxGeometry y="156" width="180" height="26" as="geometry" />
        </mxCell>
        <mxCell id="gOFwVCeouQpmuvz-VUP3-17" value="+ Customers:DbSet&lt;Customer&gt;" style="text;strokeColor=none;fillColor=none;align=left;verticalAlign=top;spacingLeft=4;spacingRight=4;overflow=hidden;rotatable=0;points=[[0,0.5],[1,0.5]];portConstraint=eastwest;" vertex="1" parent="gOFwVCeouQpmuvz-VUP3-9">
          <mxGeometry y="182" width="180" height="26" as="geometry" />
        </mxCell>
      </root>
    </mxGraphModel>
  </diagram>
</mxfile>
